<?xml version="1.0" encoding="UTF-8"?>
<svg xmlns="http://www.w3.org/2000/svg" xmlns:xlink="http://www.w3.org/1999/xlink" viewBox="0 0 560 288">
  <defs>
    <style>
      .cls-1 {
        fill: #fff;
      }

      .cls-2 {
        clip-path: url(#clippath-2);
      }

      .cls-3 {
        fill: #2b49bc;
      }

      .cls-4 {
        clip-path: url(#clippath-1);
      }

      .cls-5 {
        fill: #2f343d;
      }

      .cls-6 {
        clip-path: url(#clippath);
      }

      .cls-7 {
        fill: none;
      }

      .cls-8 {
        fill: #232222;
      }
    </style>
    <clipPath id="clippath">
      <rect class="cls-7" x="22.25" y="80.82" width="263.97" height="113.06"/>
    </clipPath>
    <clipPath id="clippath-1">
      <rect class="cls-7" x="35.92" y="89.19" width="64.95" height="104.38"/>
    </clipPath>
    <clipPath id="clippath-2">
      <rect class="cls-7" x="23.22" y="80.82" width="78.08" height="76.45"/>
    </clipPath>
  </defs>
  <g id="Layer_2" data-name="Layer 2">
    <rect class="cls-1" width="560" height="288"/>
  </g>
  <g id="Layer_1" data-name="Layer 1">
    <g>
      <g class="cls-6">
        <g>
          <path class="cls-1" d="m22.25,80.82h263.97v120.59H22.25v-120.59Z"/>
          <path class="cls-1" d="m22.25,80.82h263.97v113.06H22.25v-113.06Z"/>
          <path class="cls-1" d="m22.25,80.82h263.97v113.06H22.25v-113.06Z"/>
        </g>
      </g>
      <g class="cls-4">
        <path class="cls-8" d="m47.03,169.99l15.24,18.19,24.27-29-.05-.07,1.13-1.34c4.99-5.97,8.35-13.42,9.77-21.63-3.18-3.25-15.72-16.57-22.56-31.3l-.12-.26-.05-.29c-.69-4.1-2.66-7.2-4.05-8.96l-3.99,10.39h-7.98c-1.09,0-2.12.55-2.85,1.52l-.06.08-3.35,3.51c-1.33,1.71-3.2,2.69-5.15,2.69h-.01c-2.14,0-5.63-.01-8.03,0,.19,2.86.86,4.97,1.91,5.91l.56.51.06.84c.16,2.1.63,8.47,11.21,8.49l.98-.07c.9-1.96,3.13-6.25,6.4-8.87l1.14-.91.93,1.21c2.91,3.81,4.13,7.86,4.58,9.74,1.67.79,4.34,2.15,5.27,3.26.64.76,1.12,1.89,1.68,3.2.52,1.21,1.11,2.59,1.91,3.87.92.92,1.32,1.31,2.4,2.33l.61.57v.93c0,6.74-4.59,12.23-10.23,12.23-2.26,0-4.4-.86-6.19-2.49l1.93-3.04c1.23,1.12,2.71,1.72,4.26,1.72,3.63,0,6.63-3.3,7-7.53-.7-.67-1.14-1.1-1.97-1.93l-.14-.14-.11-.17c-1.02-1.6-1.73-3.26-2.3-4.6-.4-.93-.82-1.9-1.1-2.24-.46-.52-2.96-1.87-4.92-2.74l-.85-.38-.16-1.06s-.62-3.78-3.08-7.61c-2.85,2.95-4.58,7.27-4.6,7.32l-.25.64-.54.29c-2.97,1.58-5.66,3.8-8,6.59-4.88,5.83-7.64,13.53-7.8,21.75l7.27,8.87Zm15.24,23.58l-17.51-20.91-8.19-10v-.78c0-9.53,3.1-18.48,8.74-25.22,1.2-1.43,2.48-2.73,3.84-3.88-7.59-1.25-9.98-6.3-10.52-10.89-1.78-2.05-2.7-5.59-2.69-10.3v-1.88s1.58-.02,1.58-.02c2.11-.02,6.98-.01,9.7,0h0c1.09,0,2.12-.55,2.84-1.51l.07-.08,3.34-3.51c1.33-1.71,3.2-2.69,5.15-2.69h5.93l4.87-12.69,1.58,1.4c.22.19,5.28,4.75,6.71,12.62,7.45,15.87,22.27,30.55,22.41,30.7l.72.71-.16,1.1c-1.32,8.77-4.66,16.81-9.72,23.35l.08.09-28.79,34.39"/>
      </g>
      <path class="cls-3" d="m43.24,158.35l12.61-.36,6.38,9.08,30.84-22.69-30.84,36.67-18.99-22.69"/>
      <g class="cls-2">
        <path class="cls-3" d="m32.22,157.26c.16-1.72.41-3.42.75-5.08-10.06-16.93-8.55-40.07,3.95-54.99,13.98-16.7,36.72-16.7,50.7,0,6.17,7.37,9.79,16.88,10.41,27.13,1.3,1.48,2.43,2.7,3.28,3.61.05-5.99-.85-11.86-2.66-17.43-1.97-6.02-4.92-11.4-8.77-16.01-7.37-8.81-17.18-13.66-27.61-13.66s-20.23,4.85-27.61,13.66c-6.89,8.24-10.94,19.18-11.39,30.81-.45,11.55,2.67,22.82,8.79,31.72.05.08.11.16.17.24"/>
      </g>
      <path class="cls-5" d="m119.66,96.04h13.32c3.72,0,6.72,1.15,9.02,3.45,2.3,2.29,3.46,5.64,3.46,10.03s-1.17,7.82-3.5,10.31c-2.33,2.49-5.33,3.74-8.98,3.74h-5v16.25h-8.33v-43.78Zm8.33,19.59h2.34c1.86,0,3.38-.45,4.58-1.36,1.19-.9,1.79-2.38,1.79-4.43s-.6-3.58-1.79-4.48c-1.19-.9-2.72-1.36-4.58-1.36h-2.34v11.62Z"/>
      <path class="cls-5" d="m172.09,127.51h-16.45c0,1.92.51,3.34,1.54,4.26,1.03.91,2.16,1.37,3.37,1.37,1.27,0,2.28-.2,3.01-.6.74-.41,1.58-1.22,2.53-2.43l5.66,3.41c-2.36,4.73-6.28,7.1-11.77,7.1-3.42,0-6.36-1.4-8.81-4.21-2.45-2.82-3.67-6.2-3.67-10.16s1.22-7.36,3.67-10.19c2.45-2.84,5.39-4.26,8.81-4.26,3.6,0,6.53,1.25,8.79,3.75,2.26,2.49,3.39,6.06,3.39,10.69,0,.63-.02,1.05-.05,1.26Zm-16.24-5.19h8.64c-.18-1.42-.65-2.51-1.41-3.26-.75-.76-1.71-1.15-2.89-1.15-1.3,0-2.33.41-3.1,1.23-.76.81-1.18,1.87-1.24,3.19Z"/>
      <path class="cls-5" d="m177.14,112.6v-10.14h7.83v10.14h4.79v7.16h-4.79v8.66c0,2.5.59,3.75,1.78,3.75.3,0,.61-.07.93-.21.32-.13.57-.28.75-.43l.26-.21,1.95,7.59c-1.68,1.12-3.6,1.69-5.75,1.69-1.48,0-2.76-.31-3.81-.91-1.06-.62-1.86-1.45-2.41-2.49-.55-1.05-.93-2.15-1.17-3.3-.24-1.16-.36-2.39-.36-3.69v-10.46h-3.27v-7.16h3.27Z"/>
      <path class="cls-3" d="m193.28,96.04h13.32c3.72,0,6.72,1.15,9.02,3.45,2.3,2.29,3.46,5.64,3.46,10.03s-1.17,7.82-3.5,10.31c-2.33,2.49-5.33,3.74-8.98,3.74h-5v16.25h-8.33v-43.78Zm8.33,19.59h2.34c1.86,0,3.38-.45,4.58-1.36,1.19-.9,1.79-2.38,1.79-4.43s-.6-3.58-1.79-4.48c-1.19-.9-2.72-1.36-4.58-1.36h-2.34v11.62Z"/>
      <path class="cls-3" d="m224.29,136.45c-2.12-2.78-3.18-6.17-3.18-10.2s1.06-7.45,3.18-10.25c2.13-2.8,4.83-4.2,8.1-4.2,3.02,0,5.5,1.14,7.44,3.41v-2.6h7.83v27.22h-7.73v-3.08h-.09c-1.95,2.58-4.43,3.86-7.44,3.86-3.27,0-5.97-1.39-8.1-4.16Zm6.67-14.83c-1.02,1.2-1.53,2.74-1.53,4.62s.49,3.4,1.46,4.59c.97,1.18,2.26,1.77,3.85,1.77s2.79-.6,3.77-1.8c.99-1.2,1.49-2.72,1.49-4.56s-.51-3.42-1.53-4.62c-1.02-1.21-2.26-1.81-3.74-1.81s-2.77.61-3.79,1.81Z"/>
      <path class="cls-3" d="m252.97,139.82v-45.64h7.84v45.64h-7.84Z"/>
      <path class="cls-3" d="m275.98,111.8c1.3,0,2.58.18,3.85.54,1.27.36,2.21.71,2.83,1.06l.93.54-2.56,6.15c-1.77-1.12-3.46-1.69-5.05-1.69-.89,0-1.51.12-1.88.35-.37.22-.55.65-.55,1.29,0,.14.01.28.04.43.03.14.1.27.18.39.09.13.16.24.24.33.08.09.2.18.38.28.17.11.32.19.42.24.11.06.28.13.51.24.24.11.41.19.53.24.12.06.32.13.6.24.28.11.49.18.63.22.92.32,1.72.67,2.39,1.06.68.39,1.4.92,2.14,1.59.75.67,1.33,1.53,1.75,2.56.41,1.02.62,2.19.62,3.5,0,6.18-3.58,9.27-10.75,9.27-1.62,0-3.17-.3-4.63-.9-1.47-.6-2.52-1.2-3.17-1.8l-.97-.96,3.2-6.42c.24.25.54.55.92.88.38.34,1.08.8,2.08,1.39,1.01.58,1.88.87,2.62.87,1.62,0,2.43-.65,2.43-1.97,0-.6-.21-1.06-.62-1.4-.41-.34-1.11-.71-2.1-1.14-.99-.43-1.77-.82-2.33-1.17-1.41-.89-2.53-1.9-3.35-3.01-.83-1.11-1.24-2.59-1.24-4.42,0-2.76.89-4.91,2.67-6.45,1.79-1.55,4.2-2.32,7.23-2.32Z"/>
      <path class="cls-5" d="m121.93,160.77c.6,0,1.2.14,1.78.43s1.08.67,1.5,1.17l-.85,1.28c-.31-.4-.68-.71-1.1-.95-.43-.24-.86-.36-1.29-.36-.87,0-1.6.35-2.2,1.06-.6.71-.89,1.56-.89,2.57s.3,1.9.89,2.6c.6.71,1.33,1.06,2.2,1.06s1.69-.41,2.39-1.23l.87,1.15c-.45.53-.97.94-1.57,1.25-.59.31-1.18.46-1.78.46-1.26,0-2.33-.5-3.2-1.51-.86-1.01-1.29-2.26-1.29-3.75s.43-2.69,1.3-3.69c.87-1.01,1.95-1.51,3.24-1.51Z"/>
      <path class="cls-5" d="m131.1,163.25c1.02,0,1.84.37,2.47,1.1.63.73.95,1.69.95,2.89s-.32,2.14-.95,2.89c-.63.74-1.46,1.1-2.47,1.1s-1.84-.37-2.47-1.1c-.63-.75-.95-1.71-.95-2.89s.32-2.16.95-2.89c.63-.73,1.45-1.1,2.47-1.1Zm0,1.47c-.59,0-1.07.24-1.45.71-.37.47-.55,1.07-.55,1.83s.18,1.37.55,1.85c.37.47.86.71,1.45.71s1.08-.24,1.45-.71.55-1.09.55-1.85-.19-1.36-.57-1.83c-.37-.47-.85-.71-1.43-.71Z"/>
      <path class="cls-5" d="m141.52,163.25c.76,0,1.36.27,1.79.8.44.54.66,1.28.66,2.22v4.89h-1.42v-4.42c0-.59-.14-1.05-.42-1.39-.28-.35-.67-.52-1.16-.52-.53.01-.96.22-1.29.62-.34.39-.53.9-.58,1.53v4.18h-1.41v-7.85h1.41v1.5c.45-1.04,1.25-1.56,2.42-1.56Z"/>
      <path class="cls-5" d="m151.38,163.25c.76,0,1.36.27,1.79.8.44.54.66,1.28.66,2.22v4.89h-1.42v-4.42c0-.59-.14-1.05-.42-1.39-.28-.35-.67-.52-1.16-.52-.53.01-.96.22-1.29.62-.34.39-.53.9-.58,1.53v4.18h-1.41v-7.85h1.41v1.5c.45-1.04,1.25-1.56,2.42-1.56Z"/>
      <path class="cls-5" d="m160.1,163.25c1.12,0,1.93.41,2.43,1.21.51.81.72,1.95.63,3.42h-4.96c.12.61.36,1.1.72,1.45.36.35.8.52,1.32.52.74,0,1.35-.3,1.85-.91l.75.95c-.68.9-1.58,1.34-2.71,1.34-1.02,0-1.83-.37-2.45-1.1-.6-.73-.91-1.69-.91-2.87s.31-2.15.92-2.89c.61-.73,1.41-1.11,2.39-1.12Zm-1.91,3.39h3.74c-.02-.63-.19-1.12-.53-1.48-.33-.37-.76-.55-1.29-.55s-.95.19-1.29.55c-.34.36-.55.85-.63,1.48Z"/>
      <path class="cls-5" d="m169.02,163.25c1.18,0,2.08.43,2.71,1.28l-.78,1.1c-.49-.61-1.11-.91-1.87-.9-.57,0-1.04.24-1.41.71-.36.47-.54,1.07-.54,1.81s.18,1.34.54,1.81c.37.47.84.69,1.41.69.83,0,1.48-.32,1.93-.95l.79.95c-.62.98-1.55,1.47-2.79,1.47-.98,0-1.78-.37-2.39-1.1-.6-.73-.91-1.69-.91-2.87s.3-2.16.91-2.9c.61-.73,1.41-1.1,2.39-1.1Z"/>
      <path class="cls-5" d="m178.33,169.37l.36,1.29c-.55.39-1.09.58-1.62.58s-.98-.19-1.33-.57c-.34-.39-.51-.97-.51-1.73v-4.07h-.92v-1.28h.92v-2.16h1.41v2.16h1.93v1.28h-1.93v3.77c0,.39.06.66.17.82.11.16.29.24.54.24.26,0,.59-.11.99-.33Z"/>
      <path class="cls-5" d="m181.78,160.31c.16-.19.36-.28.59-.28s.43.09.59.28.24.44.24.74-.08.54-.24.74c-.16.19-.36.28-.59.28s-.43-.09-.59-.28c-.16-.2-.24-.45-.24-.74s.08-.55.24-.74Zm1.29,10.85h-1.39v-7.85h1.39v7.85Z"/>
      <path class="cls-5" d="m190.69,163.25c.76,0,1.36.27,1.79.8.44.54.66,1.28.66,2.22v4.89h-1.42v-4.42c0-.59-.14-1.05-.42-1.39-.28-.35-.67-.52-1.16-.52-.53.01-.96.22-1.29.62-.34.39-.53.9-.58,1.53v4.18h-1.41v-7.85h1.41v1.5c.45-1.04,1.25-1.56,2.42-1.56Z"/>
      <path class="cls-5" d="m202.63,163.31v7.08c0,1.12-.31,2.02-.92,2.68-.61.67-1.44,1.01-2.47,1.01-.97,0-1.88-.35-2.72-1.04l.6-1.23c.64.58,1.32.87,2.05.87.62,0,1.12-.21,1.5-.62.37-.4.57-.94.57-1.62v-.99c-.47.9-1.19,1.34-2.17,1.34-.89,0-1.61-.35-2.16-1.04-.54-.7-.8-1.62-.8-2.76s.27-2.01.8-2.7c.53-.68,1.24-1.03,2.1-1.04,1,0,1.74.43,2.22,1.32v-1.26h1.39Zm-3.29,6.14c.55,0,1-.22,1.35-.68.36-.45.54-1.03.54-1.73s-.18-1.29-.53-1.73c-.35-.45-.81-.68-1.37-.68s-1.01.23-1.37.68c-.35.44-.53,1.02-.54,1.73,0,.71.19,1.29.54,1.73.35.45.81.68,1.37.68Z"/>
      <path class="cls-5" d="m218.73,171.16h-1.46v-4.29h-4.56v4.29h-1.46v-10.35h1.46v4.49h4.56v-4.49h1.46v10.35Z"/>
      <path class="cls-5" d="m225.29,163.25c1.12,0,1.93.41,2.43,1.21.51.81.72,1.95.63,3.42h-4.96c.12.61.36,1.1.72,1.45.36.35.8.52,1.32.52.74,0,1.35-.3,1.85-.91l.75.95c-.68.9-1.58,1.34-2.71,1.34-1.02,0-1.83-.37-2.45-1.1-.6-.73-.91-1.69-.91-2.87s.31-2.15.92-2.89c.61-.73,1.41-1.11,2.39-1.12Zm-1.91,3.39h3.74c-.02-.63-.19-1.12-.53-1.48-.33-.37-.76-.55-1.29-.55s-.95.19-1.29.55c-.34.36-.55.85-.63,1.48Z"/>
      <path class="cls-5" d="m235.46,171.16v-.96c-.47.69-1.2,1.04-2.17,1.04-.7,0-1.26-.22-1.68-.68-.42-.46-.63-1.05-.63-1.77s.22-1.28.66-1.7c.44-.43,1.05-.65,1.83-.66h1.99v-.24c0-.5-.14-.89-.41-1.17-.26-.27-.65-.41-1.16-.41-.64,0-1.29.27-1.93.8l-.59-1.18c.51-.35.96-.61,1.35-.76.4-.16.89-.24,1.47-.24.84,0,1.49.25,1.95.74.46.48.7,1.16.7,2.02v5.16s-1.37,0-1.37,0Zm-1.88-1.28c.5,0,.92-.13,1.28-.41.35-.28.55-.64.59-1.07v-.73h-1.78c-.47,0-.82.09-1.04.25-.21.16-.32.42-.32.79s.11.64.33.85c.23.21.54.32.93.32Z"/>
      <path class="cls-5" d="m241.85,163.31v1.56c.45-1.08,1.21-1.62,2.28-1.62v1.62c-.65-.04-1.18.14-1.58.55-.4.4-.64.95-.7,1.64v4.1h-1.41v-7.85h1.41Z"/>
      <path class="cls-5" d="m250.34,169.37l.36,1.29c-.55.39-1.09.58-1.62.58s-.98-.19-1.33-.57c-.34-.39-.51-.97-.51-1.73v-4.07h-.92v-1.28h.92v-2.16h1.41v2.16h1.93v1.28h-1.93v3.77c0,.39.06.66.17.82.11.16.29.24.54.24.26,0,.59-.11.99-.33Z"/>
      <path class="cls-5" d="m255.64,163.23c.9,0,1.66.26,2.29.79l-.51,1.26c-.63-.46-1.26-.69-1.89-.69s-.96.26-.96.79c0,.25.12.47.36.63.24.17.53.31.87.43.34.11.68.24,1.03.39s.63.41.87.76c.24.34.36.77.36,1.31,0,.76-.24,1.34-.72,1.73-.47.4-1.07.6-1.79.6-.49,0-.97-.09-1.45-.28-.47-.2-.87-.47-1.18-.82l.5-1.2c.28.3.62.53,1.03.71.41.17.8.25,1.17.25.32,0,.57-.07.76-.21.2-.13.3-.35.3-.63s-.12-.53-.36-.71c-.24-.18-.53-.32-.87-.43-.34-.1-.67-.23-1.01-.38-.34-.16-.62-.4-.85-.74-.23-.34-.34-.76-.34-1.29,0-.75.23-1.31.7-1.69.46-.39,1.04-.58,1.72-.58Z"/>
      <path class="cls-5" d="m261.45,169.38c.21,0,.38.09.53.25.15.17.22.4.22.69,0,.26-.08.52-.22.77l-.7,1.28h-.72l.46-1.29c-.22-.18-.33-.43-.33-.76,0-.28.07-.51.21-.68s.33-.27.55-.27Z"/>
      <path class="cls-5" d="m118.11,180.98h3.45c1.08,0,1.91.31,2.51.93.6.61.89,1.48.89,2.6,0,1.18-.3,2.09-.89,2.73-.6.64-1.43.96-2.51.96h-1.99v3.12h-1.46v-10.35Zm1.46,1.56v4.1h1.92c1.38,0,2.08-.69,2.08-2.08s-.69-2.02-2.08-2.02h-1.92Z"/>
      <path class="cls-5" d="m131.94,191.32v-.96c-.47.69-1.2,1.04-2.17,1.04-.7,0-1.26-.22-1.68-.68-.42-.46-.63-1.05-.63-1.77s.22-1.28.66-1.7c.44-.43,1.05-.65,1.83-.66h1.99v-.24c0-.5-.14-.89-.41-1.17-.26-.27-.65-.41-1.16-.41-.64,0-1.29.27-1.93.8l-.59-1.18c.51-.35.96-.61,1.35-.76.4-.16.89-.24,1.47-.24.84,0,1.49.25,1.95.74.46.48.7,1.16.7,2.02v5.16s-1.37,0-1.37,0Zm-1.88-1.28c.5,0,.92-.13,1.28-.41.35-.28.55-.64.59-1.07v-.73h-1.78c-.47,0-.82.09-1.04.25-.21.16-.32.42-.32.79s.11.64.33.85c.23.21.54.32.93.32Z"/>
      <path class="cls-5" d="m144.54,191.32h-1.47l-1.66-5.82-1.67,5.82h-1.45l-2.42-7.85h1.46l1.7,6.17,1.64-6.17h1.47l1.66,6.17,1.68-6.17h1.43l-2.38,7.85Z"/>
      <path class="cls-5" d="m151.57,183.39c.9,0,1.66.26,2.29.79l-.51,1.26c-.63-.46-1.26-.69-1.89-.69s-.96.26-.96.79c0,.25.12.47.36.63.24.17.53.31.87.43.34.11.68.24,1.03.39s.63.41.87.76c.24.34.36.77.36,1.31,0,.76-.24,1.34-.72,1.73-.47.4-1.07.6-1.79.6-.49,0-.97-.09-1.45-.28-.47-.2-.87-.47-1.18-.82l.5-1.2c.28.3.62.53,1.03.71.41.17.8.25,1.17.25.32,0,.57-.07.76-.21.2-.13.3-.35.3-.63s-.12-.53-.36-.71c-.24-.18-.53-.32-.87-.43-.34-.1-.67-.23-1.01-.38-.34-.16-.62-.4-.85-.74-.23-.34-.34-.76-.34-1.29,0-.75.23-1.31.7-1.69.46-.39,1.04-.58,1.72-.58Z"/>
      <path class="cls-5" d="m157.37,189.54c.21,0,.38.09.53.25.15.17.22.4.22.69,0,.26-.08.52-.22.77l-.7,1.28h-.72l.46-1.29c-.22-.18-.33-.43-.33-.76,0-.28.07-.51.21-.68s.33-.27.55-.27Z"/>
      <path class="cls-5" d="m170.21,191.32v-.96c-.47.69-1.2,1.04-2.17,1.04-.7,0-1.26-.22-1.68-.68-.42-.46-.63-1.05-.63-1.77s.22-1.28.66-1.7c.44-.43,1.05-.65,1.83-.66h1.99v-.24c0-.5-.14-.89-.41-1.17-.26-.27-.65-.41-1.16-.41-.64,0-1.29.27-1.93.8l-.59-1.18c.51-.35.96-.61,1.35-.76.4-.16.89-.24,1.47-.24.84,0,1.49.25,1.95.74.46.48.7,1.16.7,2.02v5.16s-1.37,0-1.37,0Zm-1.88-1.28c.5,0,.92-.13,1.28-.41.35-.28.55-.64.59-1.07v-.73h-1.78c-.47,0-.82.09-1.04.25-.21.16-.32.42-.32.79s.11.64.33.85c.23.21.54.32.93.32Z"/>
      <path class="cls-5" d="m179.01,183.41c.76,0,1.36.27,1.79.8.44.54.66,1.28.66,2.22v4.89h-1.42v-4.42c0-.59-.14-1.05-.42-1.39-.28-.35-.67-.52-1.16-.52-.53.01-.96.22-1.29.62-.34.39-.53.9-.58,1.53v4.18h-1.41v-7.85h1.41v1.5c.45-1.04,1.25-1.56,2.42-1.56Z"/>
      <path class="cls-5" d="m191.29,180.36v10.96h-1.42v-1.34c-.48.95-1.25,1.42-2.3,1.42-.94,0-1.7-.37-2.28-1.12-.58-.75-.87-1.72-.87-2.92s.28-2.14.85-2.87c.58-.73,1.33-1.1,2.26-1.1,1.05,0,1.83.48,2.33,1.44v-4.46h1.42Zm-4.88,8.91c.37.47.86.71,1.45.71s1.08-.24,1.45-.71c.37-.48.57-1.1.57-1.85s-.19-1.39-.57-1.86c-.37-.48-.85-.73-1.45-.73s-1.07.24-1.45.73c-.38.47-.57,1.1-.57,1.86s.19,1.36.57,1.85Z"/>
      <path class="cls-5" d="m202.92,180.9c1.11,0,2.12.36,3.01,1.07l-.6,1.53c-.88-.64-1.72-.96-2.53-.96-.43,0-.77.09-1.03.28-.26.19-.38.46-.38.8s.11.64.34.88c.24.24.53.42.87.54.35.11.72.25,1.12.43.4.17.78.35,1.12.54.35.19.64.49.87.9.23.41.34.91.34,1.48,0,.91-.3,1.65-.91,2.19-.6.54-1.39.8-2.35.8-.66,0-1.3-.15-1.91-.44-.61-.29-1.15-.69-1.62-1.2l.63-1.51c.44.48.91.86,1.43,1.12.53.26,1.02.39,1.49.39.51,0,.9-.11,1.18-.33.29-.22.43-.53.43-.93,0-.35-.12-.65-.36-.9-.23-.24-.51-.41-.85-.52-.34-.11-.72-.25-1.12-.41-.4-.17-.78-.34-1.13-.52-.34-.19-.63-.48-.85-.88-.23-.41-.34-.9-.34-1.47,0-.87.28-1.57.85-2.1.58-.52,1.34-.79,2.29-.79Z"/>
      <path class="cls-5" d="m217.9,183.41c.74,0,1.33.28,1.76.82.43.54.64,1.27.64,2.21v4.89h-1.42v-4.42c0-.6-.14-1.06-.42-1.4-.27-.35-.65-.52-1.13-.52-.55.02-.99.26-1.32.73-.33.45-.49,1.03-.49,1.73v3.88h-1.42v-4.42c0-.6-.14-1.06-.42-1.4-.27-.35-.64-.52-1.12-.52-.56.02-1.01.26-1.34.73-.33.45-.49,1.03-.49,1.73v3.88h-1.39v-7.85h1.39v1.51c.44-1.05,1.23-1.58,2.38-1.58.59,0,1.07.17,1.46.5.39.33.67.79.83,1.39.4-1.26,1.23-1.89,2.49-1.89Z"/>
      <path class="cls-5" d="m224,180.47c.16-.19.36-.28.59-.28s.43.09.59.28.24.44.24.74-.08.54-.24.74c-.16.19-.36.28-.59.28s-.43-.09-.59-.28c-.16-.2-.24-.45-.24-.74s.08-.55.24-.74Zm1.29,10.85h-1.39v-7.85h1.39v7.85Z"/>
      <path class="cls-5" d="m230.55,191.32h-1.42v-10.96h1.42v10.96Z"/>
      <path class="cls-5" d="m237.1,183.41c1.12,0,1.93.41,2.43,1.21.51.81.72,1.95.63,3.42h-4.96c.12.61.36,1.1.72,1.45.36.35.8.52,1.32.52.74,0,1.35-.3,1.85-.91l.75.95c-.68.9-1.58,1.34-2.71,1.34-1.02,0-1.83-.37-2.45-1.1-.6-.73-.91-1.69-.91-2.87s.31-2.15.92-2.89c.61-.73,1.41-1.11,2.39-1.12Zm-1.91,3.39h3.74c-.02-.63-.19-1.12-.53-1.48-.33-.37-.76-.55-1.29-.55s-.95.19-1.29.55c-.34.36-.55.85-.63,1.48Z"/>
      <path class="cls-5" d="m245.29,183.39c.9,0,1.66.26,2.29.79l-.51,1.26c-.63-.46-1.26-.69-1.89-.69s-.96.26-.96.79c0,.25.12.47.36.63.24.17.53.31.87.43.34.11.68.24,1.03.39s.63.41.87.76c.24.34.36.77.36,1.31,0,.76-.24,1.34-.72,1.73-.47.4-1.07.6-1.79.6-.49,0-.97-.09-1.45-.28-.47-.2-.87-.47-1.18-.82l.5-1.2c.28.3.62.53,1.03.71.41.17.8.25,1.17.25.32,0,.57-.07.76-.21.2-.13.3-.35.3-.63s-.12-.53-.36-.71c-.24-.18-.53-.32-.87-.43-.34-.1-.67-.23-1.01-.38-.34-.16-.62-.4-.85-.74-.23-.34-.34-.76-.34-1.29,0-.75.23-1.31.7-1.69.46-.39,1.04-.58,1.72-.58Z"/>
    </g>
  </g>
</svg>