<svg xmlns="http://www.w3.org/2000/svg" xmlns:xlink="http://www.w3.org/1999/xlink" width="420" zoomAndPan="magnify" viewBox="0 0 315 112.499997" height="150" preserveAspectRatio="xMidYMid meet" version="1.0"><defs><g/><clipPath id="2a126c9616"><path d="M 0.695312 0 L 314.300781 0 L 314.300781 112.003906 L 0.695312 112.003906 Z M 0.695312 0 " clip-rule="nonzero"/></clipPath><clipPath id="2c5ceb20e0"><path d="M 16.929688 8.289062 L 94.09375 8.289062 L 94.09375 111.695312 L 16.929688 111.695312 Z M 16.929688 8.289062 " clip-rule="nonzero"/></clipPath><clipPath id="8f3dd0e5a4"><path d="M 1.851562 0 L 94.617188 0 L 94.617188 75.738281 L 1.851562 75.738281 Z M 1.851562 0 " clip-rule="nonzero"/></clipPath></defs><g clip-path="url(#2a126c9616)"><path fill="#ffffff" d="M 0.695312 0 L 314.304688 0 L 314.304688 119.46875 L 0.695312 119.46875 Z M 0.695312 0 " fill-opacity="1" fill-rule="nonzero"/><path fill="#ffffff" d="M 0.695312 0 L 314.304688 0 L 314.304688 112.003906 L 0.695312 112.003906 Z M 0.695312 0 " fill-opacity="1" fill-rule="nonzero"/><path fill="#ffffff" d="M 0.695312 0 L 314.304688 0 L 314.304688 112.003906 L 0.695312 112.003906 Z M 0.695312 0 " fill-opacity="1" fill-rule="nonzero"/></g><g clip-path="url(#2c5ceb20e0)"><path fill="#232222" d="M 30.136719 88.332031 L 48.238281 106.355469 L 77.078125 77.621094 L 77.015625 77.554688 L 78.355469 76.222656 C 84.285156 70.3125 88.28125 62.925781 89.957031 54.796875 C 86.175781 51.578125 71.28125 38.382812 63.152344 23.785156 L 63.007812 23.527344 L 62.949219 23.242188 C 62.125 19.175781 59.792969 16.105469 58.136719 14.363281 L 53.398438 24.652344 L 43.921875 24.652344 C 42.632812 24.652344 41.402344 25.199219 40.539062 26.15625 L 40.464844 26.238281 L 36.488281 29.71875 C 34.914062 31.414062 32.691406 32.382812 30.371094 32.382812 C 30.367188 32.382812 30.359375 32.382812 30.355469 32.382812 C 27.808594 32.378906 23.667969 32.371094 20.816406 32.378906 C 21.046875 35.210938 21.84375 37.300781 23.089844 38.238281 L 23.757812 38.746094 L 23.832031 39.578125 C 24.019531 41.65625 24.585938 47.972656 37.144531 47.992188 L 38.308594 47.921875 C 39.378906 45.980469 42.027344 41.734375 45.90625 39.136719 L 47.261719 38.230469 L 48.363281 39.433594 C 51.816406 43.207031 53.269531 47.21875 53.800781 49.085938 C 55.789062 49.867188 58.953125 51.214844 60.058594 52.3125 C 60.816406 53.070312 61.390625 54.1875 62.058594 55.480469 C 62.679688 56.683594 63.378906 58.042969 64.324219 59.316406 C 65.417969 60.230469 65.894531 60.617188 67.175781 61.621094 L 67.898438 62.1875 L 67.898438 63.105469 C 67.898438 69.785156 62.445312 75.21875 55.746094 75.21875 C 53.0625 75.21875 50.515625 74.363281 48.386719 72.75 L 50.683594 69.742188 C 52.148438 70.855469 53.898438 71.441406 55.746094 71.441406 C 60.058594 71.441406 63.621094 68.171875 64.0625 63.984375 C 63.226562 63.324219 62.707031 62.894531 61.71875 62.070312 L 61.554688 61.933594 L 61.425781 61.765625 C 60.21875 60.179688 59.371094 58.53125 58.6875 57.207031 C 58.210938 56.28125 57.714844 55.320312 57.378906 54.984375 C 56.832031 54.464844 53.859375 53.132812 51.53125 52.265625 L 50.527344 51.890625 L 50.332031 50.835938 C 50.328125 50.800781 49.589844 47.09375 46.671875 43.300781 C 43.285156 46.21875 41.230469 50.5 41.207031 50.550781 L 40.90625 51.183594 L 40.265625 51.46875 C 36.734375 53.035156 33.539062 55.234375 30.765625 57.996094 C 24.964844 63.773438 21.691406 71.398438 21.5 79.542969 Z M 48.238281 111.695312 L 27.433594 90.980469 L 17.699219 81.074219 L 17.699219 80.304688 C 17.699219 70.867188 21.386719 61.996094 28.085938 55.324219 C 29.507812 53.90625 31.03125 52.621094 32.648438 51.476562 C 23.628906 50.234375 20.789062 45.230469 20.148438 40.691406 C 18.035156 38.660156 16.9375 35.15625 16.957031 30.492188 L 16.96875 28.632812 L 18.835938 28.613281 C 21.339844 28.589844 27.132812 28.601562 30.363281 28.605469 C 30.367188 28.605469 30.371094 28.605469 30.371094 28.605469 C 31.660156 28.605469 32.890625 28.058594 33.75 27.105469 L 33.828125 27.023438 L 37.800781 23.542969 C 39.378906 21.847656 41.601562 20.878906 43.921875 20.878906 L 50.96875 20.878906 L 56.753906 8.308594 L 58.628906 9.695312 C 58.890625 9.886719 64.898438 14.402344 66.601562 22.199219 C 75.457031 37.921875 93.054688 52.460938 93.230469 52.609375 L 94.085938 53.3125 L 93.890625 54.398438 C 92.328125 63.089844 88.351562 71.050781 82.347656 77.53125 L 82.4375 77.621094 L 48.238281 111.695312 " fill-opacity="1" fill-rule="nonzero"/></g><path fill="#2b49bc" d="M 25.628906 76.800781 L 40.609375 76.441406 L 48.191406 85.433594 L 84.832031 62.953125 L 48.191406 99.277344 L 25.628906 76.800781 " fill-opacity="1" fill-rule="nonzero"/><g clip-path="url(#8f3dd0e5a4)"><path fill="#2b49bc" d="M 12.539062 75.722656 C 12.730469 74.019531 13.027344 72.335938 13.429688 70.6875 C 1.476562 53.914062 3.277344 30.988281 18.117188 16.207031 C 34.726562 -0.339844 61.746094 -0.339844 78.355469 16.207031 C 85.6875 23.511719 89.992188 32.929688 90.71875 43.085938 C 92.261719 44.550781 93.601562 45.765625 94.617188 46.664062 C 94.675781 40.726562 93.613281 34.917969 91.453125 29.394531 C 89.117188 23.429688 85.613281 18.097656 81.035156 13.535156 C 72.273438 4.808594 60.625 0 48.238281 0 C 35.847656 0 24.199219 4.808594 15.4375 13.535156 C 7.246094 21.699219 2.4375 32.539062 1.902344 44.058594 C 1.367188 55.503906 5.074219 66.664062 12.339844 75.484375 C 12.402344 75.566406 12.472656 75.644531 12.539062 75.722656 " fill-opacity="1" fill-rule="nonzero"/></g><g fill="#2f343d" fill-opacity="1"><g transform="translate(113.265222, 58.451146)"><g><path d="M 3.15625 -43.375 L 18.984375 -43.375 C 23.398438 -43.375 26.972656 -42.234375 29.703125 -39.953125 C 32.441406 -37.679688 33.8125 -34.367188 33.8125 -30.015625 C 33.8125 -25.671875 32.425781 -22.265625 29.65625 -19.796875 C 26.882812 -17.328125 23.328125 -16.09375 18.984375 -16.09375 L 13.046875 -16.09375 L 13.046875 0 L 3.15625 0 Z M 13.046875 -23.96875 L 15.828125 -23.96875 C 18.035156 -23.96875 19.847656 -24.414062 21.265625 -25.3125 C 22.679688 -26.207031 23.390625 -27.671875 23.390625 -29.703125 C 23.390625 -31.773438 22.679688 -33.253906 21.265625 -34.140625 C 19.847656 -35.035156 18.035156 -35.484375 15.828125 -35.484375 L 13.046875 -35.484375 Z M 13.046875 -23.96875 "/></g></g></g><g fill="#2f343d" fill-opacity="1"><g transform="translate(148.276566, 58.451146)"><g><path d="M 30.4375 -12.203125 L 10.890625 -12.203125 C 10.890625 -10.304688 11.5 -8.898438 12.71875 -7.984375 C 13.945312 -7.078125 15.28125 -6.625 16.71875 -6.625 C 18.226562 -6.625 19.421875 -6.820312 20.296875 -7.21875 C 21.171875 -7.625 22.171875 -8.425781 23.296875 -9.625 L 30.015625 -6.25 C 27.210938 -1.5625 22.550781 0.78125 16.03125 0.78125 C 11.96875 0.78125 8.476562 -0.609375 5.5625 -3.390625 C 2.65625 -6.179688 1.203125 -9.535156 1.203125 -13.453125 C 1.203125 -17.378906 2.65625 -20.742188 5.5625 -23.546875 C 8.476562 -26.359375 11.96875 -27.765625 16.03125 -27.765625 C 20.3125 -27.765625 23.789062 -26.523438 26.46875 -24.046875 C 29.15625 -21.578125 30.5 -18.046875 30.5 -13.453125 C 30.5 -12.828125 30.476562 -12.410156 30.4375 -12.203125 Z M 11.140625 -17.34375 L 21.40625 -17.34375 C 21.1875 -18.75 20.628906 -19.828125 19.734375 -20.578125 C 18.847656 -21.335938 17.703125 -21.71875 16.296875 -21.71875 C 14.753906 -21.71875 13.523438 -21.3125 12.609375 -20.5 C 11.703125 -19.695312 11.210938 -18.644531 11.140625 -17.34375 Z M 11.140625 -17.34375 "/></g></g></g><g fill="#2f343d" fill-opacity="1"><g transform="translate(179.976029, 58.451146)"><g><path d="M 4.734375 -26.96875 L 4.734375 -37.015625 L 14.03125 -37.015625 L 14.03125 -26.96875 L 19.71875 -26.96875 L 19.71875 -19.875 L 14.03125 -19.875 L 14.03125 -11.296875 C 14.03125 -8.816406 14.734375 -7.578125 16.140625 -7.578125 C 16.492188 -7.578125 16.863281 -7.644531 17.25 -7.78125 C 17.632812 -7.914062 17.929688 -8.054688 18.140625 -8.203125 L 18.453125 -8.40625 L 20.765625 -0.890625 C 18.765625 0.222656 16.488281 0.78125 13.9375 0.78125 C 12.175781 0.78125 10.664062 0.476562 9.40625 -0.125 C 8.144531 -0.738281 7.191406 -1.5625 6.546875 -2.59375 C 5.898438 -3.632812 5.4375 -4.722656 5.15625 -5.859375 C 4.875 -7.003906 4.734375 -8.222656 4.734375 -9.515625 L 4.734375 -19.875 L 0.84375 -19.875 L 0.84375 -26.96875 Z M 4.734375 -26.96875 "/></g></g></g><g fill="#2b49bc" fill-opacity="1"><g transform="translate(200.729744, 58.451146)"><g><path d="M 3.15625 -43.375 L 18.984375 -43.375 C 23.398438 -43.375 26.972656 -42.234375 29.703125 -39.953125 C 32.441406 -37.679688 33.8125 -34.367188 33.8125 -30.015625 C 33.8125 -25.671875 32.425781 -22.265625 29.65625 -19.796875 C 26.882812 -17.328125 23.328125 -16.09375 18.984375 -16.09375 L 13.046875 -16.09375 L 13.046875 0 L 3.15625 0 Z M 13.046875 -23.96875 L 15.828125 -23.96875 C 18.035156 -23.96875 19.847656 -24.414062 21.265625 -25.3125 C 22.679688 -26.207031 23.390625 -27.671875 23.390625 -29.703125 C 23.390625 -31.773438 22.679688 -33.253906 21.265625 -34.140625 C 19.847656 -35.035156 18.035156 -35.484375 15.828125 -35.484375 L 13.046875 -35.484375 Z M 13.046875 -23.96875 "/></g></g></g><g fill="#2b49bc" fill-opacity="1"><g transform="translate(235.741088, 58.451146)"><g><path d="M 4.984375 -3.34375 C 2.460938 -6.09375 1.203125 -9.460938 1.203125 -13.453125 C 1.203125 -17.453125 2.460938 -20.835938 4.984375 -23.609375 C 7.515625 -26.378906 10.722656 -27.765625 14.609375 -27.765625 C 18.191406 -27.765625 21.140625 -26.640625 23.453125 -24.390625 L 23.453125 -26.96875 L 32.75 -26.96875 L 32.75 0 L 23.5625 0 L 23.5625 -3.046875 L 23.453125 -3.046875 C 21.140625 -0.492188 18.191406 0.78125 14.609375 0.78125 C 10.722656 0.78125 7.515625 -0.59375 4.984375 -3.34375 Z M 12.90625 -18.03125 C 11.695312 -16.84375 11.09375 -15.316406 11.09375 -13.453125 C 11.09375 -11.597656 11.671875 -10.082031 12.828125 -8.90625 C 13.984375 -7.738281 15.507812 -7.15625 17.40625 -7.15625 C 19.226562 -7.15625 20.722656 -7.75 21.890625 -8.9375 C 23.066406 -10.125 23.65625 -11.628906 23.65625 -13.453125 C 23.65625 -15.316406 23.050781 -16.84375 21.84375 -18.03125 C 20.632812 -19.226562 19.15625 -19.828125 17.40625 -19.828125 C 15.613281 -19.828125 14.113281 -19.226562 12.90625 -18.03125 Z M 12.90625 -18.03125 "/></g></g></g><g fill="#2b49bc" fill-opacity="1"><g transform="translate(271.646119, 58.451146)"><g><path d="M 3.15625 0 L 3.15625 -45.21875 L 12.46875 -45.21875 L 12.46875 0 Z M 3.15625 0 "/></g></g></g><g fill="#2b49bc" fill-opacity="1"><g transform="translate(287.259282, 58.451146)"><g><path d="M 14.875 -27.765625 C 16.414062 -27.765625 17.941406 -27.585938 19.453125 -27.234375 C 20.960938 -26.878906 22.082031 -26.53125 22.8125 -26.1875 L 23.921875 -25.65625 L 20.875 -19.5625 C 18.769531 -20.675781 16.769531 -21.234375 14.875 -21.234375 C 13.820312 -21.234375 13.078125 -21.117188 12.640625 -20.890625 C 12.203125 -20.671875 11.984375 -20.242188 11.984375 -19.609375 C 11.984375 -19.472656 12 -19.332031 12.03125 -19.1875 C 12.070312 -19.050781 12.144531 -18.921875 12.25 -18.796875 C 12.351562 -18.671875 12.445312 -18.5625 12.53125 -18.46875 C 12.625 -18.382812 12.773438 -18.289062 12.984375 -18.1875 C 13.191406 -18.082031 13.359375 -18.003906 13.484375 -17.953125 C 13.609375 -17.898438 13.8125 -17.820312 14.09375 -17.71875 C 14.375 -17.613281 14.582031 -17.535156 14.71875 -17.484375 C 14.863281 -17.429688 15.101562 -17.351562 15.4375 -17.25 C 15.769531 -17.144531 16.019531 -17.070312 16.1875 -17.03125 C 17.28125 -16.71875 18.226562 -16.367188 19.03125 -15.984375 C 19.84375 -15.597656 20.691406 -15.070312 21.578125 -14.40625 C 22.472656 -13.738281 23.164062 -12.894531 23.65625 -11.875 C 24.144531 -10.863281 24.390625 -9.707031 24.390625 -8.40625 C 24.390625 -2.28125 20.132812 0.78125 11.625 0.78125 C 9.695312 0.78125 7.863281 0.484375 6.125 -0.109375 C 4.382812 -0.703125 3.128906 -1.296875 2.359375 -1.890625 L 1.203125 -2.84375 L 5 -9.203125 C 5.28125 -8.953125 5.644531 -8.660156 6.09375 -8.328125 C 6.550781 -7.992188 7.375 -7.535156 8.5625 -6.953125 C 9.757812 -6.378906 10.796875 -6.09375 11.671875 -6.09375 C 13.597656 -6.09375 14.5625 -6.742188 14.5625 -8.046875 C 14.5625 -8.640625 14.316406 -9.101562 13.828125 -9.4375 C 13.335938 -9.769531 12.503906 -10.144531 11.328125 -10.5625 C 10.148438 -10.988281 9.226562 -11.375 8.5625 -11.71875 C 6.882812 -12.601562 5.554688 -13.597656 4.578125 -14.703125 C 3.597656 -15.804688 3.109375 -17.265625 3.109375 -19.078125 C 3.109375 -21.816406 4.164062 -23.945312 6.28125 -25.46875 C 8.40625 -27 11.269531 -27.765625 14.875 -27.765625 Z M 14.875 -27.765625 "/></g></g></g><g fill="#2f343d" fill-opacity="1"><g transform="translate(113.232792, 89.499708)"><g><path d="M 5.890625 -10.296875 C 6.609375 -10.296875 7.3125 -10.15625 8 -9.875 C 8.6875 -9.59375 9.28125 -9.207031 9.78125 -8.71875 L 8.765625 -7.453125 C 8.398438 -7.847656 7.960938 -8.160156 7.453125 -8.390625 C 6.941406 -8.628906 6.429688 -8.75 5.921875 -8.75 C 4.890625 -8.75 4.019531 -8.398438 3.3125 -7.703125 C 2.601562 -7.003906 2.25 -6.15625 2.25 -5.15625 C 2.25 -4.132812 2.601562 -3.273438 3.3125 -2.578125 C 4.019531 -1.878906 4.890625 -1.53125 5.921875 -1.53125 C 6.984375 -1.53125 7.929688 -1.9375 8.765625 -2.75 L 9.796875 -1.609375 C 9.265625 -1.085938 8.644531 -0.675781 7.9375 -0.375 C 7.238281 -0.0703125 6.535156 0.078125 5.828125 0.078125 C 4.328125 0.078125 3.0625 -0.421875 2.03125 -1.421875 C 1.007812 -2.421875 0.5 -3.660156 0.5 -5.140625 C 0.5 -6.585938 1.015625 -7.804688 2.046875 -8.796875 C 3.085938 -9.796875 4.367188 -10.296875 5.890625 -10.296875 Z M 5.890625 -10.296875 "/></g></g></g><g fill="#2f343d" fill-opacity="1"><g transform="translate(125.44086, 89.499708)"><g><path d="M 4.578125 -7.84375 C 5.785156 -7.84375 6.765625 -7.476562 7.515625 -6.75 C 8.265625 -6.03125 8.640625 -5.078125 8.640625 -3.890625 C 8.640625 -2.722656 8.265625 -1.769531 7.515625 -1.03125 C 6.765625 -0.300781 5.785156 0.0625 4.578125 0.0625 C 3.367188 0.0625 2.390625 -0.300781 1.640625 -1.03125 C 0.890625 -1.769531 0.515625 -2.722656 0.515625 -3.890625 C 0.515625 -5.078125 0.890625 -6.03125 1.640625 -6.75 C 2.390625 -7.476562 3.367188 -7.84375 4.578125 -7.84375 Z M 4.578125 -6.390625 C 3.878906 -6.390625 3.304688 -6.15625 2.859375 -5.6875 C 2.421875 -5.226562 2.203125 -4.625 2.203125 -3.875 C 2.203125 -3.125 2.421875 -2.515625 2.859375 -2.046875 C 3.304688 -1.578125 3.878906 -1.34375 4.578125 -1.34375 C 5.285156 -1.34375 5.859375 -1.578125 6.296875 -2.046875 C 6.734375 -2.515625 6.953125 -3.125 6.953125 -3.875 C 6.953125 -4.625 6.726562 -5.226562 6.28125 -5.6875 C 5.84375 -6.15625 5.273438 -6.390625 4.578125 -6.390625 Z M 4.578125 -6.390625 "/></g></g></g><g fill="#2f343d" fill-opacity="1"><g transform="translate(136.595119, 89.499708)"><g><path d="M 5.796875 -7.84375 C 6.703125 -7.84375 7.410156 -7.578125 7.921875 -7.046875 C 8.441406 -6.515625 8.703125 -5.78125 8.703125 -4.84375 L 8.703125 0 L 7.015625 0 L 7.015625 -4.375 C 7.015625 -4.957031 6.847656 -5.414062 6.515625 -5.75 C 6.179688 -6.09375 5.722656 -6.265625 5.140625 -6.265625 C 4.515625 -6.253906 4.003906 -6.050781 3.609375 -5.65625 C 3.210938 -5.269531 2.984375 -4.765625 2.921875 -4.140625 L 2.921875 0 L 1.25 0 L 1.25 -7.78125 L 2.921875 -7.78125 L 2.921875 -6.296875 C 3.453125 -7.328125 4.410156 -7.84375 5.796875 -7.84375 Z M 5.796875 -7.84375 "/></g></g></g><g fill="#2f343d" fill-opacity="1"><g transform="translate(148.305561, 89.499708)"><g><path d="M 5.796875 -7.84375 C 6.703125 -7.84375 7.410156 -7.578125 7.921875 -7.046875 C 8.441406 -6.515625 8.703125 -5.78125 8.703125 -4.84375 L 8.703125 0 L 7.015625 0 L 7.015625 -4.375 C 7.015625 -4.957031 6.847656 -5.414062 6.515625 -5.75 C 6.179688 -6.09375 5.722656 -6.265625 5.140625 -6.265625 C 4.515625 -6.253906 4.003906 -6.050781 3.609375 -5.65625 C 3.210938 -5.269531 2.984375 -4.765625 2.921875 -4.140625 L 2.921875 0 L 1.25 0 L 1.25 -7.78125 L 2.921875 -7.78125 L 2.921875 -6.296875 C 3.453125 -7.328125 4.410156 -7.84375 5.796875 -7.84375 Z M 5.796875 -7.84375 "/></g></g></g><g fill="#2f343d" fill-opacity="1"><g transform="translate(160.016006, 89.499708)"><g><path d="M 4.453125 -7.84375 C 5.785156 -7.84375 6.75 -7.441406 7.34375 -6.640625 C 7.945312 -5.835938 8.195312 -4.707031 8.09375 -3.25 L 2.203125 -3.25 C 2.347656 -2.644531 2.632812 -2.164062 3.0625 -1.8125 C 3.488281 -1.46875 4.007812 -1.296875 4.625 -1.296875 C 5.5 -1.296875 6.234375 -1.597656 6.828125 -2.203125 L 7.71875 -1.265625 C 6.914062 -0.378906 5.84375 0.0625 4.5 0.0625 C 3.289062 0.0625 2.320312 -0.300781 1.59375 -1.03125 C 0.875 -1.757812 0.515625 -2.707031 0.515625 -3.875 C 0.515625 -5.050781 0.878906 -6.003906 1.609375 -6.734375 C 2.335938 -7.460938 3.285156 -7.832031 4.453125 -7.84375 Z M 2.1875 -4.484375 L 6.625 -4.484375 C 6.601562 -5.109375 6.394531 -5.597656 6 -5.953125 C 5.613281 -6.316406 5.101562 -6.5 4.46875 -6.5 C 3.851562 -6.5 3.34375 -6.316406 2.9375 -5.953125 C 2.53125 -5.597656 2.28125 -5.109375 2.1875 -4.484375 Z M 2.1875 -4.484375 "/></g></g></g><g fill="#2f343d" fill-opacity="1"><g transform="translate(170.628727, 89.499708)"><g><path d="M 4.4375 -7.84375 C 5.84375 -7.84375 6.914062 -7.421875 7.65625 -6.578125 L 6.734375 -5.484375 C 6.148438 -6.085938 5.410156 -6.382812 4.515625 -6.375 C 3.835938 -6.375 3.28125 -6.140625 2.84375 -5.671875 C 2.414062 -5.210938 2.203125 -4.613281 2.203125 -3.875 C 2.203125 -3.144531 2.414062 -2.546875 2.84375 -2.078125 C 3.28125 -1.617188 3.835938 -1.390625 4.515625 -1.390625 C 5.503906 -1.390625 6.269531 -1.703125 6.8125 -2.328125 L 7.75 -1.390625 C 7.007812 -0.421875 5.90625 0.0625 4.4375 0.0625 C 3.269531 0.0625 2.320312 -0.300781 1.59375 -1.03125 C 0.875 -1.757812 0.515625 -2.707031 0.515625 -3.875 C 0.515625 -5.0625 0.875 -6.019531 1.59375 -6.75 C 2.320312 -7.476562 3.269531 -7.84375 4.4375 -7.84375 Z M 4.4375 -7.84375 "/></g></g></g><g fill="#2f343d" fill-opacity="1"><g transform="translate(180.890184, 89.499708)"><g><path d="M 5.234375 -1.78125 L 5.65625 -0.5 C 5.007812 -0.113281 4.367188 0.078125 3.734375 0.078125 C 3.097656 0.078125 2.570312 -0.109375 2.15625 -0.484375 C 1.75 -0.867188 1.546875 -1.441406 1.546875 -2.203125 L 1.546875 -6.234375 L 0.453125 -6.234375 L 0.453125 -7.5 L 1.546875 -7.5 L 1.546875 -9.640625 L 3.21875 -9.640625 L 3.21875 -7.5 L 5.515625 -7.5 L 5.515625 -6.234375 L 3.21875 -6.234375 L 3.21875 -2.5 C 3.21875 -2.113281 3.285156 -1.84375 3.421875 -1.6875 C 3.554688 -1.53125 3.769531 -1.453125 4.0625 -1.453125 C 4.375 -1.453125 4.765625 -1.5625 5.234375 -1.78125 Z M 5.234375 -1.78125 "/></g></g></g><g fill="#2f343d" fill-opacity="1"><g transform="translate(188.853748, 89.499708)"><g><path d="M 1.375 -10.75 C 1.5625 -10.9375 1.796875 -11.03125 2.078125 -11.03125 C 2.359375 -11.03125 2.59375 -10.9375 2.78125 -10.75 C 2.96875 -10.5625 3.0625 -10.316406 3.0625 -10.015625 C 3.0625 -9.722656 2.96875 -9.476562 2.78125 -9.28125 C 2.59375 -9.09375 2.359375 -9 2.078125 -9 C 1.796875 -9 1.5625 -9.09375 1.375 -9.28125 C 1.1875 -9.476562 1.09375 -9.722656 1.09375 -10.015625 C 1.09375 -10.316406 1.1875 -10.5625 1.375 -10.75 Z M 2.90625 0 L 1.25 0 L 1.25 -7.78125 L 2.90625 -7.78125 Z M 2.90625 0 "/></g></g></g><g fill="#2f343d" fill-opacity="1"><g transform="translate(195.017043, 89.499708)"><g><path d="M 5.796875 -7.84375 C 6.703125 -7.84375 7.410156 -7.578125 7.921875 -7.046875 C 8.441406 -6.515625 8.703125 -5.78125 8.703125 -4.84375 L 8.703125 0 L 7.015625 0 L 7.015625 -4.375 C 7.015625 -4.957031 6.847656 -5.414062 6.515625 -5.75 C 6.179688 -6.09375 5.722656 -6.265625 5.140625 -6.265625 C 4.515625 -6.253906 4.003906 -6.050781 3.609375 -5.65625 C 3.210938 -5.269531 2.984375 -4.765625 2.921875 -4.140625 L 2.921875 0 L 1.25 0 L 1.25 -7.78125 L 2.921875 -7.78125 L 2.921875 -6.296875 C 3.453125 -7.328125 4.410156 -7.84375 5.796875 -7.84375 Z M 5.796875 -7.84375 "/></g></g></g><g fill="#2f343d" fill-opacity="1"><g transform="translate(206.727488, 89.499708)"><g><path d="M 8.265625 -7.78125 L 8.265625 -0.765625 C 8.265625 0.347656 7.898438 1.234375 7.171875 1.890625 C 6.441406 2.554688 5.460938 2.890625 4.234375 2.890625 C 3.078125 2.890625 2 2.546875 1 1.859375 L 1.71875 0.640625 C 2.476562 1.210938 3.289062 1.5 4.15625 1.5 C 4.894531 1.5 5.488281 1.296875 5.9375 0.890625 C 6.382812 0.492188 6.609375 -0.0390625 6.609375 -0.71875 L 6.609375 -1.703125 C 6.054688 -0.816406 5.195312 -0.375 4.03125 -0.375 C 2.96875 -0.375 2.113281 -0.71875 1.46875 -1.40625 C 0.832031 -2.101562 0.515625 -3.015625 0.515625 -4.140625 C 0.515625 -5.242188 0.832031 -6.132812 1.46875 -6.8125 C 2.101562 -7.488281 2.9375 -7.832031 3.96875 -7.84375 C 5.15625 -7.851562 6.035156 -7.414062 6.609375 -6.53125 L 6.609375 -7.78125 Z M 4.359375 -1.703125 C 5.015625 -1.703125 5.550781 -1.925781 5.96875 -2.375 C 6.394531 -2.820312 6.609375 -3.394531 6.609375 -4.09375 C 6.609375 -4.800781 6.398438 -5.375 5.984375 -5.8125 C 5.566406 -6.257812 5.023438 -6.484375 4.359375 -6.484375 C 3.703125 -6.484375 3.160156 -6.257812 2.734375 -5.8125 C 2.316406 -5.375 2.101562 -4.800781 2.09375 -4.09375 C 2.101562 -3.394531 2.316406 -2.820312 2.734375 -2.375 C 3.148438 -1.925781 3.691406 -1.703125 4.359375 -1.703125 Z M 4.359375 -1.703125 "/></g></g></g><g fill="#2f343d" fill-opacity="1"><g transform="translate(218.101298, 89.499708)"><g/></g></g><g fill="#2f343d" fill-opacity="1"><g transform="translate(223.884056, 89.499708)"><g><path d="M 10.234375 0 L 8.5 0 L 8.5 -4.25 L 3.078125 -4.25 L 3.078125 0 L 1.34375 0 L 1.34375 -10.25 L 3.078125 -10.25 L 3.078125 -5.796875 L 8.5 -5.796875 L 8.5 -10.25 L 10.234375 -10.25 Z M 10.234375 0 "/></g></g></g><g fill="#2f343d" fill-opacity="1"><g transform="translate(237.467943, 89.499708)"><g><path d="M 4.453125 -7.84375 C 5.785156 -7.84375 6.75 -7.441406 7.34375 -6.640625 C 7.945312 -5.835938 8.195312 -4.707031 8.09375 -3.25 L 2.203125 -3.25 C 2.347656 -2.644531 2.632812 -2.164062 3.0625 -1.8125 C 3.488281 -1.46875 4.007812 -1.296875 4.625 -1.296875 C 5.5 -1.296875 6.234375 -1.597656 6.828125 -2.203125 L 7.71875 -1.265625 C 6.914062 -0.378906 5.84375 0.0625 4.5 0.0625 C 3.289062 0.0625 2.320312 -0.300781 1.59375 -1.03125 C 0.875 -1.757812 0.515625 -2.707031 0.515625 -3.875 C 0.515625 -5.050781 0.878906 -6.003906 1.609375 -6.734375 C 2.335938 -7.460938 3.285156 -7.832031 4.453125 -7.84375 Z M 2.1875 -4.484375 L 6.625 -4.484375 C 6.601562 -5.109375 6.394531 -5.597656 6 -5.953125 C 5.613281 -6.316406 5.101562 -6.5 4.46875 -6.5 C 3.851562 -6.5 3.34375 -6.316406 2.9375 -5.953125 C 2.53125 -5.597656 2.28125 -5.109375 2.1875 -4.484375 Z M 2.1875 -4.484375 "/></g></g></g><g fill="#2f343d" fill-opacity="1"><g transform="translate(248.080656, 89.499708)"><g><path d="M 5.921875 0 L 5.921875 -0.953125 C 5.359375 -0.265625 4.5 0.078125 3.34375 0.078125 C 2.507812 0.078125 1.84375 -0.144531 1.34375 -0.59375 C 0.84375 -1.050781 0.59375 -1.632812 0.59375 -2.34375 C 0.59375 -3.050781 0.851562 -3.613281 1.375 -4.03125 C 1.894531 -4.457031 2.617188 -4.675781 3.546875 -4.6875 L 5.90625 -4.6875 L 5.90625 -4.921875 C 5.90625 -5.421875 5.742188 -5.804688 5.421875 -6.078125 C 5.109375 -6.347656 4.648438 -6.484375 4.046875 -6.484375 C 3.285156 -6.484375 2.519531 -6.21875 1.75 -5.6875 L 1.046875 -6.859375 C 1.648438 -7.210938 2.1875 -7.460938 2.65625 -7.609375 C 3.132812 -7.765625 3.71875 -7.84375 4.40625 -7.84375 C 5.40625 -7.84375 6.175781 -7.597656 6.71875 -7.109375 C 7.269531 -6.628906 7.546875 -5.960938 7.546875 -5.109375 L 7.5625 0 Z M 3.6875 -1.265625 C 4.28125 -1.265625 4.785156 -1.398438 5.203125 -1.671875 C 5.617188 -1.953125 5.851562 -2.304688 5.90625 -2.734375 L 5.90625 -3.453125 L 3.796875 -3.453125 C 3.234375 -3.453125 2.820312 -3.367188 2.5625 -3.203125 C 2.3125 -3.046875 2.1875 -2.785156 2.1875 -2.421875 C 2.1875 -2.066406 2.316406 -1.785156 2.578125 -1.578125 C 2.847656 -1.367188 3.21875 -1.265625 3.6875 -1.265625 Z M 3.6875 -1.265625 "/></g></g></g><g fill="#2f343d" fill-opacity="1"><g transform="translate(258.664105, 89.499708)"><g><path d="M 2.921875 -7.78125 L 2.921875 -6.234375 C 3.460938 -7.304688 4.363281 -7.84375 5.625 -7.84375 L 5.625 -6.234375 C 4.851562 -6.273438 4.226562 -6.09375 3.75 -5.6875 C 3.269531 -5.289062 2.992188 -4.75 2.921875 -4.0625 L 2.921875 0 L 1.25 0 L 1.25 -7.78125 Z M 2.921875 -7.78125 "/></g></g></g><g fill="#2f343d" fill-opacity="1"><g transform="translate(266.437393, 89.499708)"><g><path d="M 5.234375 -1.78125 L 5.65625 -0.5 C 5.007812 -0.113281 4.367188 0.078125 3.734375 0.078125 C 3.097656 0.078125 2.570312 -0.109375 2.15625 -0.484375 C 1.75 -0.867188 1.546875 -1.441406 1.546875 -2.203125 L 1.546875 -6.234375 L 0.453125 -6.234375 L 0.453125 -7.5 L 1.546875 -7.5 L 1.546875 -9.640625 L 3.21875 -9.640625 L 3.21875 -7.5 L 5.515625 -7.5 L 5.515625 -6.234375 L 3.21875 -6.234375 L 3.21875 -2.5 C 3.21875 -2.113281 3.285156 -1.84375 3.421875 -1.6875 C 3.554688 -1.53125 3.769531 -1.453125 4.0625 -1.453125 C 4.375 -1.453125 4.765625 -1.5625 5.234375 -1.78125 Z M 5.234375 -1.78125 "/></g></g></g><g fill="#2f343d" fill-opacity="1"><g transform="translate(274.400956, 89.499708)"><g><path d="M 3.578125 -7.859375 C 4.648438 -7.859375 5.554688 -7.597656 6.296875 -7.078125 L 5.6875 -5.828125 C 4.9375 -6.285156 4.1875 -6.515625 3.4375 -6.515625 C 2.675781 -6.515625 2.296875 -6.253906 2.296875 -5.734375 C 2.296875 -5.484375 2.4375 -5.273438 2.71875 -5.109375 C 3 -4.941406 3.34375 -4.800781 3.75 -4.6875 C 4.15625 -4.582031 4.5625 -4.453125 4.96875 -4.296875 C 5.375 -4.140625 5.71875 -3.890625 6 -3.546875 C 6.28125 -3.210938 6.421875 -2.78125 6.421875 -2.25 C 6.421875 -1.5 6.132812 -0.925781 5.5625 -0.53125 C 5 -0.132812 4.289062 0.0625 3.4375 0.0625 C 2.851562 0.0625 2.28125 -0.03125 1.71875 -0.21875 C 1.15625 -0.414062 0.6875 -0.6875 0.3125 -1.03125 L 0.90625 -2.21875 C 1.238281 -1.925781 1.644531 -1.691406 2.125 -1.515625 C 2.613281 -1.347656 3.078125 -1.265625 3.515625 -1.265625 C 3.890625 -1.265625 4.191406 -1.332031 4.421875 -1.46875 C 4.660156 -1.601562 4.78125 -1.8125 4.78125 -2.09375 C 4.78125 -2.382812 4.640625 -2.617188 4.359375 -2.796875 C 4.078125 -2.972656 3.734375 -3.113281 3.328125 -3.21875 C 2.929688 -3.320312 2.53125 -3.445312 2.125 -3.59375 C 1.726562 -3.75 1.390625 -3.992188 1.109375 -4.328125 C 0.835938 -4.660156 0.703125 -5.085938 0.703125 -5.609375 C 0.703125 -6.347656 0.976562 -6.90625 1.53125 -7.28125 C 2.082031 -7.664062 2.765625 -7.859375 3.578125 -7.859375 Z M 3.578125 -7.859375 "/></g></g></g><g fill="#2f343d" fill-opacity="1"><g transform="translate(283.286597, 89.499708)"><g><path d="M 1.59375 -1.765625 C 1.84375 -1.765625 2.050781 -1.679688 2.21875 -1.515625 C 2.394531 -1.347656 2.484375 -1.117188 2.484375 -0.828125 C 2.484375 -0.566406 2.394531 -0.3125 2.21875 -0.0625 L 1.390625 1.203125 L 0.53125 1.203125 L 1.078125 -0.078125 C 0.816406 -0.253906 0.6875 -0.503906 0.6875 -0.828125 C 0.6875 -1.109375 0.769531 -1.332031 0.9375 -1.5 C 1.113281 -1.675781 1.332031 -1.765625 1.59375 -1.765625 Z M 1.59375 -1.765625 "/></g></g></g><g fill="#2f343d" fill-opacity="1"><g transform="translate(113.232792, 109.47235)"><g><path d="M 1.34375 -10.25 L 5.4375 -10.25 C 6.71875 -10.25 7.710938 -9.941406 8.421875 -9.328125 C 9.128906 -8.722656 9.484375 -7.863281 9.484375 -6.75 C 9.484375 -5.582031 9.128906 -4.679688 8.421875 -4.046875 C 7.710938 -3.410156 6.71875 -3.09375 5.4375 -3.09375 L 3.078125 -3.09375 L 3.078125 0 L 1.34375 0 Z M 3.078125 -8.703125 L 3.078125 -4.640625 L 5.359375 -4.640625 C 7.003906 -4.640625 7.828125 -5.328125 7.828125 -6.703125 C 7.828125 -8.035156 7.003906 -8.703125 5.359375 -8.703125 Z M 3.078125 -8.703125 "/></g></g></g><g fill="#2f343d" fill-opacity="1"><g transform="translate(125.089595, 109.47235)"><g><path d="M 5.921875 0 L 5.921875 -0.953125 C 5.359375 -0.265625 4.5 0.078125 3.34375 0.078125 C 2.507812 0.078125 1.84375 -0.144531 1.34375 -0.59375 C 0.84375 -1.050781 0.59375 -1.632812 0.59375 -2.34375 C 0.59375 -3.050781 0.851562 -3.613281 1.375 -4.03125 C 1.894531 -4.457031 2.617188 -4.675781 3.546875 -4.6875 L 5.90625 -4.6875 L 5.90625 -4.921875 C 5.90625 -5.421875 5.742188 -5.804688 5.421875 -6.078125 C 5.109375 -6.347656 4.648438 -6.484375 4.046875 -6.484375 C 3.285156 -6.484375 2.519531 -6.21875 1.75 -5.6875 L 1.046875 -6.859375 C 1.648438 -7.210938 2.1875 -7.460938 2.65625 -7.609375 C 3.132812 -7.765625 3.71875 -7.84375 4.40625 -7.84375 C 5.40625 -7.84375 6.175781 -7.597656 6.71875 -7.109375 C 7.269531 -6.628906 7.546875 -5.960938 7.546875 -5.109375 L 7.5625 0 Z M 3.6875 -1.265625 C 4.28125 -1.265625 4.785156 -1.398438 5.203125 -1.671875 C 5.617188 -1.953125 5.851562 -2.304688 5.90625 -2.734375 L 5.90625 -3.453125 L 3.796875 -3.453125 C 3.234375 -3.453125 2.820312 -3.367188 2.5625 -3.203125 C 2.3125 -3.046875 2.1875 -2.785156 2.1875 -2.421875 C 2.1875 -2.066406 2.316406 -1.785156 2.578125 -1.578125 C 2.847656 -1.367188 3.21875 -1.265625 3.6875 -1.265625 Z M 3.6875 -1.265625 "/></g></g></g><g fill="#2f343d" fill-opacity="1"><g transform="translate(135.673043, 109.47235)"><g><path d="M 10.3125 0 L 8.5625 0 L 6.59375 -5.765625 L 4.609375 0 L 2.890625 0 L 0.015625 -7.78125 L 1.75 -7.78125 L 3.765625 -1.671875 L 5.71875 -7.78125 L 7.46875 -7.78125 L 9.4375 -1.671875 L 11.4375 -7.78125 L 13.140625 -7.78125 Z M 10.3125 0 "/></g></g></g><g fill="#2f343d" fill-opacity="1"><g transform="translate(150.749814, 109.47235)"><g><path d="M 3.578125 -7.859375 C 4.648438 -7.859375 5.554688 -7.597656 6.296875 -7.078125 L 5.6875 -5.828125 C 4.9375 -6.285156 4.1875 -6.515625 3.4375 -6.515625 C 2.675781 -6.515625 2.296875 -6.253906 2.296875 -5.734375 C 2.296875 -5.484375 2.4375 -5.273438 2.71875 -5.109375 C 3 -4.941406 3.34375 -4.800781 3.75 -4.6875 C 4.15625 -4.582031 4.5625 -4.453125 4.96875 -4.296875 C 5.375 -4.140625 5.71875 -3.890625 6 -3.546875 C 6.28125 -3.210938 6.421875 -2.78125 6.421875 -2.25 C 6.421875 -1.5 6.132812 -0.925781 5.5625 -0.53125 C 5 -0.132812 4.289062 0.0625 3.4375 0.0625 C 2.851562 0.0625 2.28125 -0.03125 1.71875 -0.21875 C 1.15625 -0.414062 0.6875 -0.6875 0.3125 -1.03125 L 0.90625 -2.21875 C 1.238281 -1.925781 1.644531 -1.691406 2.125 -1.515625 C 2.613281 -1.347656 3.078125 -1.265625 3.515625 -1.265625 C 3.890625 -1.265625 4.191406 -1.332031 4.421875 -1.46875 C 4.660156 -1.601562 4.78125 -1.8125 4.78125 -2.09375 C 4.78125 -2.382812 4.640625 -2.617188 4.359375 -2.796875 C 4.078125 -2.972656 3.734375 -3.113281 3.328125 -3.21875 C 2.929688 -3.320312 2.53125 -3.445312 2.125 -3.59375 C 1.726562 -3.75 1.390625 -3.992188 1.109375 -4.328125 C 0.835938 -4.660156 0.703125 -5.085938 0.703125 -5.609375 C 0.703125 -6.347656 0.976562 -6.90625 1.53125 -7.28125 C 2.082031 -7.664062 2.765625 -7.859375 3.578125 -7.859375 Z M 3.578125 -7.859375 "/></g></g></g><g fill="#2f343d" fill-opacity="1"><g transform="translate(159.635455, 109.47235)"><g><path d="M 1.59375 -1.765625 C 1.84375 -1.765625 2.050781 -1.679688 2.21875 -1.515625 C 2.394531 -1.347656 2.484375 -1.117188 2.484375 -0.828125 C 2.484375 -0.566406 2.394531 -0.3125 2.21875 -0.0625 L 1.390625 1.203125 L 0.53125 1.203125 L 1.078125 -0.078125 C 0.816406 -0.253906 0.6875 -0.503906 0.6875 -0.828125 C 0.6875 -1.109375 0.769531 -1.332031 0.9375 -1.5 C 1.113281 -1.675781 1.332031 -1.765625 1.59375 -1.765625 Z M 1.59375 -1.765625 "/></g></g></g><g fill="#2f343d" fill-opacity="1"><g transform="translate(164.774213, 109.47235)"><g/></g></g><g fill="#2f343d" fill-opacity="1"><g transform="translate(170.556972, 109.47235)"><g><path d="M 5.921875 0 L 5.921875 -0.953125 C 5.359375 -0.265625 4.5 0.078125 3.34375 0.078125 C 2.507812 0.078125 1.84375 -0.144531 1.34375 -0.59375 C 0.84375 -1.050781 0.59375 -1.632812 0.59375 -2.34375 C 0.59375 -3.050781 0.851562 -3.613281 1.375 -4.03125 C 1.894531 -4.457031 2.617188 -4.675781 3.546875 -4.6875 L 5.90625 -4.6875 L 5.90625 -4.921875 C 5.90625 -5.421875 5.742188 -5.804688 5.421875 -6.078125 C 5.109375 -6.347656 4.648438 -6.484375 4.046875 -6.484375 C 3.285156 -6.484375 2.519531 -6.21875 1.75 -5.6875 L 1.046875 -6.859375 C 1.648438 -7.210938 2.1875 -7.460938 2.65625 -7.609375 C 3.132812 -7.765625 3.71875 -7.84375 4.40625 -7.84375 C 5.40625 -7.84375 6.175781 -7.597656 6.71875 -7.109375 C 7.269531 -6.628906 7.546875 -5.960938 7.546875 -5.109375 L 7.5625 0 Z M 3.6875 -1.265625 C 4.28125 -1.265625 4.785156 -1.398438 5.203125 -1.671875 C 5.617188 -1.953125 5.851562 -2.304688 5.90625 -2.734375 L 5.90625 -3.453125 L 3.796875 -3.453125 C 3.234375 -3.453125 2.820312 -3.367188 2.5625 -3.203125 C 2.3125 -3.046875 2.1875 -2.785156 2.1875 -2.421875 C 2.1875 -2.066406 2.316406 -1.785156 2.578125 -1.578125 C 2.847656 -1.367188 3.21875 -1.265625 3.6875 -1.265625 Z M 3.6875 -1.265625 "/></g></g></g><g fill="#2f343d" fill-opacity="1"><g transform="translate(181.140421, 109.47235)"><g><path d="M 5.796875 -7.84375 C 6.703125 -7.84375 7.410156 -7.578125 7.921875 -7.046875 C 8.441406 -6.515625 8.703125 -5.78125 8.703125 -4.84375 L 8.703125 0 L 7.015625 0 L 7.015625 -4.375 C 7.015625 -4.957031 6.847656 -5.414062 6.515625 -5.75 C 6.179688 -6.09375 5.722656 -6.265625 5.140625 -6.265625 C 4.515625 -6.253906 4.003906 -6.050781 3.609375 -5.65625 C 3.210938 -5.269531 2.984375 -4.765625 2.921875 -4.140625 L 2.921875 0 L 1.25 0 L 1.25 -7.78125 L 2.921875 -7.78125 L 2.921875 -6.296875 C 3.453125 -7.328125 4.410156 -7.84375 5.796875 -7.84375 Z M 5.796875 -7.84375 "/></g></g></g><g fill="#2f343d" fill-opacity="1"><g transform="translate(192.850867, 109.47235)"><g><path d="M 8.671875 -10.859375 L 8.671875 0 L 6.984375 0 L 6.984375 -1.328125 C 6.410156 -0.390625 5.5 0.078125 4.25 0.078125 C 3.132812 0.078125 2.234375 -0.289062 1.546875 -1.03125 C 0.859375 -1.769531 0.515625 -2.734375 0.515625 -3.921875 C 0.515625 -5.097656 0.851562 -6.046875 1.53125 -6.765625 C 2.21875 -7.492188 3.113281 -7.859375 4.21875 -7.859375 C 5.46875 -7.859375 6.390625 -7.382812 6.984375 -6.4375 L 6.984375 -10.859375 Z M 2.875 -2.03125 C 3.320312 -1.5625 3.894531 -1.328125 4.59375 -1.328125 C 5.300781 -1.328125 5.875 -1.5625 6.3125 -2.03125 C 6.757812 -2.507812 6.984375 -3.117188 6.984375 -3.859375 C 6.984375 -4.617188 6.757812 -5.234375 6.3125 -5.703125 C 5.875 -6.179688 5.300781 -6.421875 4.59375 -6.421875 C 3.894531 -6.421875 3.320312 -6.179688 2.875 -5.703125 C 2.425781 -5.234375 2.203125 -4.617188 2.203125 -3.859375 C 2.203125 -3.117188 2.425781 -2.507812 2.875 -2.03125 Z M 2.875 -2.03125 "/></g></g></g><g fill="#2f343d" fill-opacity="1"><g transform="translate(204.839404, 109.47235)"><g/></g></g><g fill="#2f343d" fill-opacity="1"><g transform="translate(210.622163, 109.47235)"><g><path d="M 4.71875 -10.328125 C 6.039062 -10.328125 7.234375 -9.972656 8.296875 -9.265625 L 7.578125 -7.75 C 6.535156 -8.382812 5.535156 -8.703125 4.578125 -8.703125 C 4.066406 -8.703125 3.660156 -8.609375 3.359375 -8.421875 C 3.054688 -8.234375 2.90625 -7.96875 2.90625 -7.625 C 2.90625 -7.28125 3.039062 -6.988281 3.3125 -6.75 C 3.59375 -6.507812 3.9375 -6.332031 4.34375 -6.21875 C 4.757812 -6.113281 5.203125 -5.972656 5.671875 -5.796875 C 6.148438 -5.628906 6.59375 -5.453125 7 -5.265625 C 7.414062 -5.078125 7.757812 -4.78125 8.03125 -4.375 C 8.300781 -3.96875 8.4375 -3.476562 8.4375 -2.90625 C 8.4375 -2 8.078125 -1.273438 7.359375 -0.734375 C 6.640625 -0.203125 5.707031 0.0625 4.5625 0.0625 C 3.78125 0.0625 3.023438 -0.0820312 2.296875 -0.375 C 1.566406 -0.664062 0.925781 -1.0625 0.375 -1.5625 L 1.125 -3.0625 C 1.644531 -2.582031 2.210938 -2.210938 2.828125 -1.953125 C 3.453125 -1.691406 4.039062 -1.5625 4.59375 -1.5625 C 5.195312 -1.5625 5.664062 -1.671875 6 -1.890625 C 6.34375 -2.109375 6.515625 -2.414062 6.515625 -2.8125 C 6.515625 -3.164062 6.375 -3.460938 6.09375 -3.703125 C 5.820312 -3.941406 5.484375 -4.113281 5.078125 -4.21875 C 4.671875 -4.332031 4.226562 -4.46875 3.75 -4.625 C 3.269531 -4.789062 2.820312 -4.960938 2.40625 -5.140625 C 2 -5.328125 1.660156 -5.617188 1.390625 -6.015625 C 1.117188 -6.421875 0.984375 -6.90625 0.984375 -7.46875 C 0.984375 -8.332031 1.320312 -9.023438 2 -9.546875 C 2.6875 -10.066406 3.59375 -10.328125 4.71875 -10.328125 Z M 4.71875 -10.328125 "/></g></g></g><g fill="#2f343d" fill-opacity="1"><g transform="translate(221.732524, 109.47235)"><g><path d="M 11.40625 -7.84375 C 12.289062 -7.84375 12.988281 -7.570312 13.5 -7.03125 C 14.007812 -6.5 14.265625 -5.769531 14.265625 -4.84375 L 14.265625 0 L 12.578125 0 L 12.578125 -4.375 C 12.578125 -4.96875 12.410156 -5.429688 12.078125 -5.765625 C 11.753906 -6.109375 11.304688 -6.28125 10.734375 -6.28125 C 10.078125 -6.257812 9.554688 -6.019531 9.171875 -5.5625 C 8.785156 -5.113281 8.59375 -4.539062 8.59375 -3.84375 L 8.59375 0 L 6.90625 0 L 6.90625 -4.375 C 6.90625 -4.96875 6.738281 -5.429688 6.40625 -5.765625 C 6.082031 -6.109375 5.640625 -6.28125 5.078125 -6.28125 C 4.410156 -6.257812 3.878906 -6.019531 3.484375 -5.5625 C 3.097656 -5.113281 2.90625 -4.539062 2.90625 -3.84375 L 2.90625 0 L 1.25 0 L 1.25 -7.78125 L 2.90625 -7.78125 L 2.90625 -6.28125 C 3.425781 -7.320312 4.367188 -7.84375 5.734375 -7.84375 C 6.429688 -7.84375 7.007812 -7.675781 7.46875 -7.34375 C 7.9375 -7.019531 8.265625 -6.5625 8.453125 -5.96875 C 8.929688 -7.21875 9.914062 -7.84375 11.40625 -7.84375 Z M 11.40625 -7.84375 "/></g></g></g><g fill="#2f343d" fill-opacity="1"><g transform="translate(239.004747, 109.47235)"><g><path d="M 1.375 -10.75 C 1.5625 -10.9375 1.796875 -11.03125 2.078125 -11.03125 C 2.359375 -11.03125 2.59375 -10.9375 2.78125 -10.75 C 2.96875 -10.5625 3.0625 -10.316406 3.0625 -10.015625 C 3.0625 -9.722656 2.96875 -9.476562 2.78125 -9.28125 C 2.59375 -9.09375 2.359375 -9 2.078125 -9 C 1.796875 -9 1.5625 -9.09375 1.375 -9.28125 C 1.1875 -9.476562 1.09375 -9.722656 1.09375 -10.015625 C 1.09375 -10.316406 1.1875 -10.5625 1.375 -10.75 Z M 2.90625 0 L 1.25 0 L 1.25 -7.78125 L 2.90625 -7.78125 Z M 2.90625 0 "/></g></g></g><g fill="#2f343d" fill-opacity="1"><g transform="translate(245.168035, 109.47235)"><g><path d="M 3 0 L 1.3125 0 L 1.3125 -10.859375 L 3 -10.859375 Z M 3 0 "/></g></g></g><g fill="#2f343d" fill-opacity="1"><g transform="translate(251.492334, 109.47235)"><g><path d="M 4.453125 -7.84375 C 5.785156 -7.84375 6.75 -7.441406 7.34375 -6.640625 C 7.945312 -5.835938 8.195312 -4.707031 8.09375 -3.25 L 2.203125 -3.25 C 2.347656 -2.644531 2.632812 -2.164062 3.0625 -1.8125 C 3.488281 -1.46875 4.007812 -1.296875 4.625 -1.296875 C 5.5 -1.296875 6.234375 -1.597656 6.828125 -2.203125 L 7.71875 -1.265625 C 6.914062 -0.378906 5.84375 0.0625 4.5 0.0625 C 3.289062 0.0625 2.320312 -0.300781 1.59375 -1.03125 C 0.875 -1.757812 0.515625 -2.707031 0.515625 -3.875 C 0.515625 -5.050781 0.878906 -6.003906 1.609375 -6.734375 C 2.335938 -7.460938 3.285156 -7.832031 4.453125 -7.84375 Z M 2.1875 -4.484375 L 6.625 -4.484375 C 6.601562 -5.109375 6.394531 -5.597656 6 -5.953125 C 5.613281 -6.316406 5.101562 -6.5 4.46875 -6.5 C 3.851562 -6.5 3.34375 -6.316406 2.9375 -5.953125 C 2.53125 -5.597656 2.28125 -5.109375 2.1875 -4.484375 Z M 2.1875 -4.484375 "/></g></g></g><g fill="#2f343d" fill-opacity="1"><g transform="translate(262.105055, 109.47235)"><g><path d="M 3.578125 -7.859375 C 4.648438 -7.859375 5.554688 -7.597656 6.296875 -7.078125 L 5.6875 -5.828125 C 4.9375 -6.285156 4.1875 -6.515625 3.4375 -6.515625 C 2.675781 -6.515625 2.296875 -6.253906 2.296875 -5.734375 C 2.296875 -5.484375 2.4375 -5.273438 2.71875 -5.109375 C 3 -4.941406 3.34375 -4.800781 3.75 -4.6875 C 4.15625 -4.582031 4.5625 -4.453125 4.96875 -4.296875 C 5.375 -4.140625 5.71875 -3.890625 6 -3.546875 C 6.28125 -3.210938 6.421875 -2.78125 6.421875 -2.25 C 6.421875 -1.5 6.132812 -0.925781 5.5625 -0.53125 C 5 -0.132812 4.289062 0.0625 3.4375 0.0625 C 2.851562 0.0625 2.28125 -0.03125 1.71875 -0.21875 C 1.15625 -0.414062 0.6875 -0.6875 0.3125 -1.03125 L 0.90625 -2.21875 C 1.238281 -1.925781 1.644531 -1.691406 2.125 -1.515625 C 2.613281 -1.347656 3.078125 -1.265625 3.515625 -1.265625 C 3.890625 -1.265625 4.191406 -1.332031 4.421875 -1.46875 C 4.660156 -1.601562 4.78125 -1.8125 4.78125 -2.09375 C 4.78125 -2.382812 4.640625 -2.617188 4.359375 -2.796875 C 4.078125 -2.972656 3.734375 -3.113281 3.328125 -3.21875 C 2.929688 -3.320312 2.53125 -3.445312 2.125 -3.59375 C 1.726562 -3.75 1.390625 -3.992188 1.109375 -4.328125 C 0.835938 -4.660156 0.703125 -5.085938 0.703125 -5.609375 C 0.703125 -6.347656 0.976562 -6.90625 1.53125 -7.28125 C 2.082031 -7.664062 2.765625 -7.859375 3.578125 -7.859375 Z M 3.578125 -7.859375 "/></g></g></g></svg>